<svg width="45" height="45" viewBox="0 0 45 45" fill="none" xmlns="http://www.w3.org/2000/svg">
<g clip-path="url(#clip0_405_609)">
<path d="M5.625 11.25V31.5C5.625 33.6002 5.625 34.6496 6.03373 35.4518C6.39324 36.1573 6.96651 36.7322 7.67213 37.0916C8.4735 37.5 9.52311 37.5 11.6192 37.5H33.3808C35.4769 37.5 36.525 37.5 37.3264 37.0916C38.0319 36.7322 38.6072 36.1577 38.9666 35.4521C39.3754 34.65 39.3754 33.5998 39.3754 31.4996V17.2496C39.3754 15.1494 39.3754 14.0993 38.9666 13.2971C38.6072 12.5915 38.0323 12.0182 37.3268 11.6587C36.5246 11.25 35.4752 11.25 33.375 11.25H22.5M5.625 11.25H22.5M5.625 11.25C5.625 9.17893 7.30393 7.5 9.375 7.5H16.2647C17.1819 7.5 17.6416 7.5 18.0732 7.60361C18.4558 7.69547 18.8211 7.84736 19.1565 8.05297C19.5349 8.28482 19.8596 8.60966 20.5078 9.25781L22.5 11.25" stroke="white" stroke-width="2" stroke-linecap="round" stroke-linejoin="round"/>
<path d="M5.625 11.25V31.5C5.625 33.6002 5.625 34.6496 6.03373 35.4518C6.39324 36.1573 6.96651 36.7322 7.67213 37.0916C8.4735 37.5 9.52311 37.5 11.6192 37.5H33.3808C35.4769 37.5 36.525 37.5 37.3264 37.0916C38.0319 36.7322 38.6072 36.1577 38.9666 35.4521C39.3754 34.65 39.3754 33.5998 39.3754 31.4996V17.2496C39.3754 15.1494 39.3754 14.0993 38.9666 13.2971C38.6072 12.5915 38.0323 12.0182 37.3268 11.6587C36.5246 11.25 35.4752 11.25 33.375 11.25H22.5H5.625Z" fill="#FFF586"/>
<path d="M5.625 11.25H22.5L20.5078 9.25781L20.5063 9.25632C19.8591 8.60916 19.5346 8.28464 19.1565 8.05297C18.8211 7.84736 18.4558 7.69547 18.0732 7.60361C17.6416 7.5 17.1819 7.5 16.2647 7.5H9.375C7.30393 7.5 5.625 9.17893 5.625 11.25Z" fill="#FFF586"/>
<path d="M5.625 11.25V31.5C5.625 33.6002 5.625 34.6496 6.03373 35.4518C6.39324 36.1573 6.96651 36.7322 7.67213 37.0916C8.4735 37.5 9.52311 37.5 11.6192 37.5H33.3808C35.4769 37.5 36.525 37.5 37.3264 37.0916C38.0319 36.7322 38.6072 36.1577 38.9666 35.4521C39.3754 34.65 39.3754 33.5998 39.3754 31.4996V17.2496C39.3754 15.1494 39.3754 14.0993 38.9666 13.2971C38.6072 12.5915 38.0323 12.0182 37.3268 11.6587C36.5246 11.25 35.4752 11.25 33.375 11.25H22.5M5.625 11.25H22.5M5.625 11.25C5.625 9.17893 7.30393 7.5 9.375 7.5H16.2647C17.1819 7.5 17.6416 7.5 18.0732 7.60361C18.4558 7.69547 18.8211 7.84736 19.1565 8.05297C19.5346 8.28464 19.8591 8.60916 20.5063 9.25632L20.5078 9.25781L22.5 11.25" stroke="white" stroke-width="2" stroke-linecap="round" stroke-linejoin="round"/>
</g>
<defs>
<clipPath id="clip0_405_609">
<rect width="45" height="45" fill="white"/>
</clipPath>
</defs>
</svg>
