<svg width="45" height="45" viewBox="0 0 45 45" fill="none" xmlns="http://www.w3.org/2000/svg">
<path d="M33.3808 37.5H37.1119C37.9228 37.5 38.3286 37.5 38.6692 37.3609C38.97 37.2381 39.2346 37.0384 39.4354 36.7828C39.6628 36.4933 39.7747 36.1041 39.9975 35.3241L42.0332 28.1992C42.4042 26.901 42.5887 26.2517 42.4431 25.7383C42.3154 25.2883 42.0246 24.9024 41.6271 24.6562C41.1996 24.3913 40.575 24.3759 39.3754 24.375H9.37552L6.71814 33.6757L6.7143 33.6889C6.41406 34.7396 6.23584 35.3634 6.25867 35.8354C6.61352 36.366 7.0992 36.7997 7.67213 37.0916C8.4735 37.5 9.52311 37.5 11.6192 37.5H33.3808Z" fill="#D9D9D9"/>
<path d="M6.71814 33.6757L9.37552 24.375H39.3754V17.2496C39.3754 15.1494 39.3754 14.0993 38.9666 13.2971C38.6072 12.5915 38.0323 12.0182 37.3267 11.6587C36.5246 11.25 35.4752 11.25 33.375 11.25H22.5H5.625V31.5C5.625 33.6002 5.625 34.6496 6.03373 35.4517C6.10132 35.5845 6.17649 35.7126 6.25867 35.8354C6.23584 35.3634 6.41406 34.7396 6.7143 33.6889L6.71814 33.6757Z" fill="#D9D9D9"/>
<path d="M5.625 11.25H22.5L20.5078 9.25781L20.5063 9.25632C19.8591 8.60916 19.5346 8.28464 19.1565 8.05297C18.8211 7.84736 18.4558 7.69547 18.0732 7.60361C17.6416 7.5 17.1819 7.5 16.2647 7.5H9.375C7.30393 7.5 5.625 9.17893 5.625 11.25Z" fill="#D9D9D9"/>
<path d="M39.3754 24.375C40.575 24.3759 41.1996 24.3913 41.6271 24.6562C42.0246 24.9024 42.3154 25.2883 42.4431 25.7383C42.5887 26.2517 42.4042 26.901 42.0332 28.1992L39.9975 35.3241C39.7747 36.1041 39.6628 36.4933 39.4354 36.7828C39.2346 37.0384 38.97 37.2381 38.6692 37.3609C38.3286 37.5 37.9228 37.5 37.1119 37.5H33.3808H11.6192M39.3754 24.375V17.2496C39.3754 15.1494 39.3754 14.0993 38.9666 13.2971C38.6072 12.5915 38.0323 12.0182 37.3267 11.6587C36.5246 11.25 35.4752 11.25 33.375 11.25H22.5M39.3754 24.375H9.37552L6.71814 33.6757L6.7143 33.6889C6.41406 34.7396 6.23584 35.3634 6.25867 35.8354M11.6192 37.5H9.60204C8.25285 37.5 7.57641 37.5 7.12281 37.2189C6.72531 36.9726 6.43395 36.5867 6.30634 36.1367C6.27945 36.042 6.26387 35.9426 6.25867 35.8354M11.6192 37.5C9.52311 37.5 8.4735 37.5 7.67213 37.0916C7.0992 36.7997 6.61352 36.366 6.25867 35.8354M6.25867 35.8354C6.17649 35.7126 6.10132 35.5845 6.03373 35.4517C5.625 34.6496 5.625 33.6002 5.625 31.5V11.25M22.5 11.25H5.625M22.5 11.25L20.5078 9.25781L20.5063 9.25632C19.8591 8.60916 19.5346 8.28464 19.1565 8.05297C18.8211 7.84736 18.4558 7.69547 18.0732 7.60361C17.6416 7.5 17.1819 7.5 16.2647 7.5H9.375C7.30393 7.5 5.625 9.17893 5.625 11.25" stroke="white" stroke-width="2" stroke-linecap="round" stroke-linejoin="round"/>
</svg>
