<svg width="115" height="93" viewBox="0 0 115 93" fill="none" xmlns="http://www.w3.org/2000/svg">
<path d="M25.5 92.25C20.875 92.25 16.7083 91.1042 13 88.8125C9.25 86.5208 6.22917 83.4375 3.9375 79.5625C1.6875 75.6875 0.5625 71.3542 0.5625 66.5625V26C0.5625 21.3333 1.70833 17.0833 4 13.25C6.25 9.375 9.27083 6.29167 13.0625 4C16.8542 1.66667 21 0.5 25.5 0.5C30.2083 0.5 34.4583 1.625 38.25 3.875C42.0417 6.16667 45.0417 9.22917 47.25 13.0625C49.5 16.8958 50.625 21.2083 50.625 26V31.875C50.625 32.2083 50.4167 32.375 50 32.375H35.625C35.2917 32.375 35.125 32.2083 35.125 31.875V27C35.125 23.75 34.2083 21.0625 32.375 18.9375C30.5417 16.8125 28.25 15.75 25.5 15.75C23.0417 15.75 20.8542 16.7708 18.9375 18.8125C17.0208 20.8542 16.0625 23.25 16.0625 26V66.5625C16.0625 69.3542 17 71.7708 18.875 73.8125C20.75 75.8125 22.9583 76.8125 25.5 76.8125C28.25 76.8125 30.5417 75.8333 32.375 73.875C34.2083 71.875 35.125 69.4375 35.125 66.5625V60.25H26.1875C25.7292 60.25 25.5 60.0417 25.5 59.625V45.3125C25.5 44.8958 25.7292 44.6875 26.1875 44.6875H50.125C50.4583 44.6875 50.625 44.8958 50.625 45.3125V66.5625C50.625 71.3542 49.5 75.6875 47.25 79.5625C44.9583 83.4375 41.9375 86.5208 38.1875 88.8125C34.4375 91.1042 30.2083 92.25 25.5 92.25ZM74.6875 91H60.1875C59.8542 91 59.6875 90.7917 59.6875 90.375L59.9375 2.5625C59.9375 2.14583 60.1042 1.9375 60.4375 1.9375H74.8125C75.1458 1.9375 75.3125 2.14583 75.3125 2.5625V32.875L95.375 2.4375C95.7083 2.10417 96.0208 1.9375 96.3125 1.9375H111C111.375 1.9375 111.458 2.10417 111.25 2.4375L89.125 37.75L113.938 90.5C114.146 90.8333 113.938 91 113.312 91H97.6875C97.2708 91 97.0208 90.8333 96.9375 90.5L79.625 52.875L75.1875 59.875V90.375C75.1875 90.7917 75.0208 91 74.6875 91Z" fill="white"/>
</svg>
